<svg width="18" height="11" viewBox="0 0 18 11" version="1.1" xmlns="http://www.w3.org/2000/svg" xmlns:xlink="http://www.w3.org/1999/xlink">
<title>arrow-right</title>
<desc>Created using Figma</desc>
<g id="Canvas" transform="translate(-5152 -1672)">
<g id="arrow-right">
<g id="Shape">
<use xlink:href="#path0_fill" transform="translate(5152 1672.01)"/>
</g>
</g>
</g>
<defs>
<path id="path0_fill" d="M 12.8914 0.135919L 17.8295 5.07403C 18.0476 5.29209 18.0476 5.49032 17.8295 5.70839L 12.8914 10.6485C 12.7923 10.7476 12.6932 10.7872 12.5742 10.7872C 12.4553 10.7872 12.3562 10.7476 12.257 10.6485C 12.039 10.4304 12.039 10.2322 12.257 10.0141L 16.422 5.84913L 0.455947 5.84913C 0.198238 5.84913 0 5.6509 0 5.39319C 0 5.13548 0.198238 4.93724 0.455947 4.93724L 16.422 4.93724L 12.257 0.772263C 11.8407 0.353981 12.4751 -0.28038 12.8914 0.135919Z"/>
</defs>
</svg>
