<svg width="15" height="12" viewBox="0 0 15 12" version="1.1" xmlns="http://www.w3.org/2000/svg" xmlns:xlink="http://www.w3.org/1999/xlink">
<title>check-on</title>
<desc>Created using Figma</desc>
<g id="Canvas" transform="translate(-510 909)">
<g id="check-on">
<g id="Vector">
<use xlink:href="#path0_stroke" transform="translate(511 -907.5)" fill="#FFFFFF"/>
</g>
</g>
</g>
<defs>
<path id="path0_stroke" d="M 0.807692 3.42825C 0.482062 2.98218 -0.143529 2.88454 -0.589605 3.21017C -1.03568 3.5358 -1.13332 4.16139 -0.807691 4.60746L 0.807692 3.42825ZM 3.6369 9L 2.82921 9.58961C 2.99943 9.82278 3.26212 9.97102 3.54972 9.99619C 3.83731 10.0214 4.12176 9.92101 4.32989 9.72095L 3.6369 9ZM 13.693 0.720948C 14.0912 0.338221 14.1037 -0.294821 13.7209 -0.692989C 13.3382 -1.09116 12.7052 -1.10367 12.307 -0.720947L 13.693 0.720948ZM -0.807691 4.60746L 2.82921 9.58961L 4.4446 8.41039L 0.807692 3.42825L -0.807691 4.60746ZM 4.32989 9.72095L 13.693 0.720948L 12.307 -0.720947L 2.94391 8.27905L 4.32989 9.72095Z"/>
</defs>
</svg>
