<svg width="16" height="16" viewBox="0 0 16 16" version="1.1" xmlns="http://www.w3.org/2000/svg" xmlns:xlink="http://www.w3.org/1999/xlink">
<title>close1</title>
<desc>Created using Figma</desc>
<g id="Canvas" transform="translate(-5065 -3489)">
<g id="close1">
<g id="Shape">
<use xlink:href="#path0_fill" transform="translate(5065.23 3489.23)" fill="#484848"/>
</g>
</g>
</g>
<defs>
<path id="path0_fill" d="M 15.1 13.7667C 15.5 14.1667 15.5 14.8333 15.1 15.2333C 14.7 15.6333 14.0333 15.6333 13.6333 15.2333L 7.76667 9.23333L 1.76667 15.2333C 1.36667 15.6333 0.7 15.6333 0.3 15.2333C -0.1 14.8333 -0.1 14.1667 0.3 13.7667L 6.3 7.76667L 0.433333 1.76667C 0.0333333 1.36667 0.0333333 0.7 0.433333 0.3C 0.833333 -0.1 1.5 -0.1 1.9 0.3L 7.76667 6.3L 13.7667 0.3C 14.1667 -0.1 14.8333 -0.1 15.2333 0.3C 15.6333 0.7 15.6333 1.36667 15.2333 1.76667L 9.23333 7.76667L 15.1 13.7667Z"/>
</defs>
</svg>
