<svg width="32" height="32" viewBox="0 0 32 32" version="1.1" xmlns="http://www.w3.org/2000/svg" xmlns:xlink="http://www.w3.org/1999/xlink">
<title>entire</title>
<desc>Created using Figma</desc>
<g id="Canvas" transform="translate(-1778 805)">
<g id="entire">
<g id="Shape">
<use xlink:href="#path0_fill" transform="translate(1778 -805)"/>
</g>
</g>
</g>
<defs>
<path id="path0_fill" fill-rule="evenodd" d="M 30 31L 31.5 31C 31.7761 31 32 31.2239 32 31.5C 32 31.7761 31.7761 32 31.5 32L 25 32L 25 21.676C 25 20.752 24.327 20 23.5 20C 22.673 20 22 20.752 22 21.676L 22 32L 0.5 32C 0.223877 32 0 31.7761 0 31.5C 0 31.2239 0.223877 31 0.5 31L 3 31L 3 27L 1 27C 0.849609 26.9998 0.707275 26.9319 0.612427 26.8152C 0.517578 26.6985 0.480347 26.5452 0.510986 26.3979L 3.01099 14.3979C 3.05823 14.1655 3.2627 13.9983 3.5 13.9983C 3.7373 13.9983 3.94177 14.1655 3.98901 14.3979L 6.48901 26.3989C 6.51929 26.5461 6.48193 26.699 6.38721 26.8157C 6.29236 26.9321 6.15015 26.9998 6 27L 4 27L 4 31L 9 31L 9 6.02295L 19.5 0.00390625L 25 3.15698L 25 0.5C 25 0.223877 25.2239 0 25.5 0C 25.7761 0 26 0.223877 26 0.5L 26 3.72998L 30 6.02295L 30 31ZM 26 31L 29 31L 29 6.60205L 19.5 1.15601L 10 6.60205L 10 31L 21 31L 21 21.676C 21 20.2 22.121 19 23.5 19C 24.879 19 26 20.2 26 21.676L 26 31ZM 25.25 16C 25.6642 16 26 15.6643 26 15.25L 26 10.5061C 26.0006 9.12402 24.882 8.00269 23.5 8C 22.118 8.00269 20.9994 9.12402 21 10.5061L 21 15.251C 21.006 15.6626 21.3384 15.9946 21.75 16L 25.25 16ZM 22 10.5061C 22 9.67505 22.673 9 23.5 9C 24.327 9 25 9.67505 25 10.5061L 25 15L 22 15L 22 10.5061ZM 14 21.5061L 14 26L 17 26L 17 21.5061C 17 20.676 16.327 20 15.5 20C 14.673 20 14 20.676 14 21.5061ZM 15.5 19C 14.1183 19.0034 13 20.1243 13 21.5061L 13 26.251C 13.006 26.6626 13.3384 26.9946 13.75 27L 17.25 27C 17.6642 27 18 26.6643 18 26.25L 18 21.5061C 18 20.1243 16.8817 19.0034 15.5 19ZM 14 15L 17 15L 17 10.5061C 17 9.67505 16.327 9 15.5 9C 14.673 9 14 9.67505 14 10.5061L 14 15ZM 15.5 8C 14.1183 8.00342 13 9.12427 13 10.5061L 13 15.251C 13.006 15.6626 13.3384 15.9946 13.75 16L 17.25 16C 17.6642 16 18 15.6643 18 15.25L 18 10.5061C 18 9.12427 16.8817 8.00342 15.5 8ZM 1.61499 26L 3.5 16.9519L 5.38501 26L 1.61499 26Z"/>
</defs>
</svg>
