<svg width="32" height="32" viewBox="0 0 32 32" version="1.1" xmlns="http://www.w3.org/2000/svg" xmlns:xlink="http://www.w3.org/1999/xlink">
<title>privat</title>
<desc>Created using Figma</desc>
<g id="Canvas" transform="translate(-1778 748)">
<g id="privat">
<g id="Shape">
<use xlink:href="#path0_fill" transform="translate(1778 -748)"/>
</g>
</g>
</g>
<defs>
<path id="path0_fill" fill-rule="evenodd" d="M 31.5 32C 31.7761 32 32 31.7761 32 31.5C 32 31.2239 31.7761 31 31.5 31L 23 31L 23 7C 23 3.13989 19.859 0 16 0C 12.141 0 9 3.13989 9 7L 9 8.5C 9 8.77612 9.22388 9 9.5 9C 9.65833 9 9.79956 8.92627 9.89111 8.81152C 9.95923 8.72607 10 8.61768 10 8.5L 10 7C 10 3.69092 12.691 1 16 1C 19.309 1 22 3.69092 22 7L 22 31L 10 31L 10 23.5C 10 23.2239 9.77612 23 9.5 23C 9.22388 23 9 23.2239 9 23.5L 9 31L 0.5 31C 0.223877 31 0 31.2239 0 31.5C 0 31.7761 0.223877 32 0.5 32L 31.5 32ZM 14 15.5L 14 21.5C 14 21.7761 13.7761 22 13.5 22L 5.5 22C 5.22388 22 5 21.7761 5 21.5L 5 15.5C 5 15.2239 5.22388 15 5.5 15L 7 15L 7 13.5C 7 12.1221 8.12097 11 9.5 11C 10.879 11 12 12.1221 12 13.5L 12 15L 13.5 15C 13.7761 15 14 15.2239 14 15.5ZM 11 13.5L 11 15L 8 15L 8 13.5C 8 12.6731 8.67297 12 9.5 12C 10.327 12 11 12.6731 11 13.5ZM 13 21L 13 16L 6 16L 6 21L 13 21ZM 19 18C 19.5522 18 20 17.5522 20 17C 20 16.4478 19.5522 16 19 16C 18.4478 16 18 16.4478 18 17C 18 17.5522 18.4478 18 19 18Z"/>
</defs>
</svg>
