<svg width="33" height="32" viewBox="0 0 33 32" version="1.1" xmlns="http://www.w3.org/2000/svg" xmlns:xlink="http://www.w3.org/1999/xlink">
<title>shared</title>
<desc>Created using Figma</desc>
<g id="Canvas" transform="translate(-1777 676)">
<g id="shared">
<g id="Shape">
<use xlink:href="#path0_fill" transform="translate(1778 -675.5)"/>
</g>
</g>
</g>
<defs>
<path id="path0_fill" fill-rule="evenodd" d="M 30.4903 1.89502C 30.4401 1.66504 30.2367 1.50073 30.0013 1.5L 27.0013 1.5L 27.0013 0.5C 27.0013 0.223877 26.7774 0 26.5013 0C 26.3439 0 26.2035 0.0725098 26.1119 0.186279C 26.0824 0.222656 26.058 0.263184 26.0397 0.307129C 26.0149 0.366455 26.0013 0.431641 26.0013 0.5L 26.0013 1.5L 23.0013 1.5C 22.897 1.5 22.7991 1.53223 22.7179 1.58813C 22.6684 1.62207 22.625 1.66504 22.5904 1.71484C 22.575 1.73706 22.5613 1.7605 22.5496 1.78516L 22.5402 1.80591C 22.5284 1.83423 22.519 1.86401 22.5122 1.89502L 21.0122 8.89502C 20.9911 8.99097 20.9992 9.08984 21.0334 9.17969C 21.0519 9.22827 21.0782 9.27417 21.1116 9.31543C 21.2071 9.43311 21.3507 9.50122 21.5022 9.5L 26.0013 9.5L 26.0013 30.5L 24.5013 30.5C 24.2251 30.5 24.0013 30.7239 24.0013 31C 24.0013 31.2761 24.2251 31.5 24.5013 31.5L 28.5013 31.5C 28.7774 31.5 29.0013 31.2761 29.0013 31C 29.0013 30.7239 28.7774 30.5 28.5013 30.5L 27.0013 30.5L 27.0013 9.5L 31.5013 9.5C 31.591 9.5 31.6778 9.47583 31.7533 9.43164C 31.805 9.40161 31.8515 9.36206 31.8901 9.31421C 31.9017 9.2998 31.9124 9.28491 31.9222 9.26953C 31.9327 9.25317 31.9422 9.23633 31.9506 9.21899C 31.9591 9.20142 31.9667 9.18335 31.9731 9.16479C 31.9787 9.14868 31.9834 9.13232 31.9873 9.11572C 32.0043 9.04419 32.0053 8.96875 31.9893 8.89502L 30.4903 1.89502ZM 22.1193 8.5L 23.4053 2.5L 29.5973 2.5L 30.8833 8.5L 22.1193 8.5ZM 18.0014 30.5L 20.5484 30.5L 20.9983 21.948C 21.0019 21.8828 21.0013 21.8184 20.9966 21.7551C 20.9888 21.6497 20.9699 21.5471 20.9403 21.449C 20.9102 21.3489 20.8688 21.2532 20.8167 21.1636C 20.7657 21.0757 20.7044 20.9937 20.6333 20.9189C 20.4682 20.7441 20.2603 20.6206 20.028 20.5547C 19.9002 20.5186 19.7649 20.5 19.6254 20.5L 18.0014 20.5L 18.0014 30.5ZM 5.00138 26.5L 17.0014 26.5L 17.0014 24.5L 5.00138 24.5L 5.00138 26.5ZM 1.45426 30.5L 4.00138 30.5L 4.00138 20.5L 2.37736 20.5C 1.99772 20.4937 1.63261 20.6453 1.3693 20.9189C 1.10966 21.1963 0.977456 21.5691 1.00431 21.948L 1.45426 30.5ZM 5.00138 16.5029C 5.00138 15.3979 5.89933 14.5 7.00443 14.5L 14.9983 14.5C 16.1023 14.5 17.0014 15.3979 17.0014 16.5029L 17.0014 23.5L 5.00138 23.5L 5.00138 16.5029ZM 18.0014 16.5029L 18.0014 19.5L 19.6253 19.5C 20.2799 19.491 20.9085 19.7561 21.359 20.231C 21.61 20.4956 21.793 20.812 21.8982 21.1533C 21.982 21.4246 22.0166 21.7117 21.9974 22.001L 21.4964 31.5L 17.0014 31.5L 17.0014 27.5L 5.00138 27.5L 5.00138 31.5L 0.506265 31.5L 0.00528835 22.001C -0.038657 21.3477 0.192788 20.7058 0.64335 20.2307C 1.09391 19.7556 1.72257 19.4907 2.37736 19.5L 4.00138 19.5L 4.00138 16.5029C 4.00102 15.7065 4.3173 14.9424 4.88053 14.3792C 5.44376 13.8159 6.2078 13.4998 7.00431 13.5L 14.9983 13.5C 15.7948 13.4998 16.5589 13.8159 17.1221 14.3792C 17.6853 14.9424 18.0016 15.7065 18.0014 16.5029Z"/>
</defs>
</svg>
