<svg width="11" height="6" viewBox="0 0 11 6" version="1.1" xmlns="http://www.w3.org/2000/svg" xmlns:xlink="http://www.w3.org/1999/xlink">
<title>Shape</title>
<desc>Created using Figma</desc>
<g id="Canvas" transform="translate(693 947)">
<g id="Shape">
<use xlink:href="#path0_fill" transform="matrix(-1.83697e-16 1 -1 -1.83697e-16 -682.223 -946.776)" fill="#767676"/>
</g>
</g>
<defs>
<path id="path0_fill" d="M 0.162625 0.948459C 0.0222992 0.808033 -0.0324514 0.603412 0.0189974 0.411674C 0.0704463 0.219935 0.220278 0.070209 0.412053 0.0188958C 0.603828 -0.0324175 0.80841 0.0224778 0.948736 0.162903L 5.3904 4.60735C 5.60728 4.82429 5.60728 5.17596 5.3904 5.3929L 0.948736 9.83735C 0.80841 9.97777 0.603828 10.0327 0.412053 9.98135C 0.220278 9.93004 0.0704463 9.78032 0.0189974 9.58858C -0.0324514 9.39684 0.0222992 9.19222 0.162625 9.05179L 4.21263 5.00013L 0.162625 0.948459Z"/>
</defs>
</svg>
