<svg width="21" height="22" viewBox="0 0 21 22" version="1.1" xmlns="http://www.w3.org/2000/svg" xmlns:xlink="http://www.w3.org/1999/xlink">
<title>search</title>
<desc>Created using Figma</desc>
<g id="Canvas" transform="translate(1883 956)">
<g id="search">
<g id="Shape" opacity="0.64">
<use xlink:href="#path0_fill" transform="translate(-1882.8 -955.798)" fill="#484848"/>
</g>
</g>
</g>
<defs>
<path id="path0_fill" fill-rule="evenodd" d="M 15.0714 15.1026L 19.8441 19.8852C 20.1305 20.1721 20.035 20.6504 19.7487 20.9374C 19.4624 21.2243 18.9851 21.2243 18.6987 20.9374L 13.926 16.1548L 13.926 16.0591C 12.2078 17.3983 9.91687 18.0678 7.53052 17.6852C 2.75781 16.92 -0.58313 12.52 0.085083 7.64172C 0.848755 2.76343 5.33508 -0.584351 10.1078 0.0852051C 14.8805 0.850403 18.2214 5.25043 17.5532 10.1287C 17.2668 12.1374 16.4078 13.7634 15.0714 15.1026ZM 1.51697 7.83301C 0.944214 11.946 3.80786 15.6765 7.81689 16.2504C 11.826 16.8243 15.6442 13.9548 16.2169 9.93738C 16.7897 5.82434 13.926 2.09387 9.91699 1.51996C 5.81238 0.946045 2.08972 3.81561 1.51697 7.83301Z"/>
</defs>
</svg>
