<svg width="19" height="14" viewBox="0 0 19 14" version="1.1" xmlns="http://www.w3.org/2000/svg" xmlns:xlink="http://www.w3.org/1999/xlink">
<title>check-on</title>
<desc>Created using Figma</desc>
<g id="Canvas" transform="translate(-600 785)">
<g id="check-on">
<g id="Vector">
<use xlink:href="#path0_stroke" transform="translate(602 -783)" fill="#008489"/>
</g>
</g>
</g>
<defs>
<path id="path0_stroke" d="M 1.19536 3.49861C 0.6949 2.83843 -0.24598 2.70895 -0.906157 3.20941C -1.56633 3.70986 -1.69581 4.65074 -1.19536 5.31092L 1.19536 3.49861ZM 4.14048 9.86667L 2.94512 10.7728C 3.20089 11.1102 3.58735 11.3238 4.00912 11.3609C 4.43089 11.398 4.84869 11.2551 5.15941 10.9675L 4.14048 9.86667ZM 15.8189 1.10081C 16.4269 0.53807 16.4636 -0.41097 15.9008 -1.01893C 15.3381 -1.62689 14.389 -1.66355 13.7811 -1.10081L 15.8189 1.10081ZM -1.19536 5.31092L 2.94512 10.7728L 5.33583 8.96051L 1.19536 3.49861L -1.19536 5.31092ZM 5.15941 10.9675L 15.8189 1.10081L 13.7811 -1.10081L 3.12155 8.76586L 5.15941 10.9675Z"/>
</defs>
</svg>
