<svg width="12" height="13" viewBox="0 0 12 13" version="1.1" xmlns="http://www.w3.org/2000/svg" xmlns:xlink="http://www.w3.org/1999/xlink">
<title>plus</title>
<desc>Created using Figma</desc>
<g id="Canvas" transform="translate(-1949 -2150)">
<g id="plus">
<g id="Rectangle-path">
<use xlink:href="#path0_fill" transform="matrix(0.707107 0.707107 -0.707107 0.707107 1950.49 2150.23)" fill="#484848"/>
</g>
<g id="Rectangle-path">
<use xlink:href="#path1_fill" transform="matrix(0.707107 0.707107 -0.707107 0.707107 1959.54 2150.23)" fill="#484848"/>
</g>
</g>
</g>
<defs>
<path id="path0_fill" d="M 0 1.28C 0 0.573076 0.573076 0 1.28 0L 14.08 0C 14.7869 0 15.36 0.573076 15.36 1.28C 15.36 1.98692 14.7869 2.56 14.08 2.56L 1.28 2.56C 0.573076 2.56 0 1.98692 0 1.28Z"/>
<path id="path1_fill" d="M 0 1.28C 0 0.573076 0.573076 0 1.28 0C 1.98692 0 2.56 0.573076 2.56 1.28L 2.56 14.08C 2.56 14.7869 1.98692 15.36 1.28 15.36C 0.573076 15.36 0 14.7869 0 14.08L 0 1.28Z"/>
</defs>
</svg>
