<svg width="30" height="32" viewBox="0 0 30 32" version="1.1" xmlns="http://www.w3.org/2000/svg" xmlns:xlink="http://www.w3.org/1999/xlink">
<title>Shape</title>
<desc>Created using Figma</desc>
<g id="Canvas" transform="translate(1980 961)">
<g id="Shape">
<use xlink:href="#path0_fill" transform="translate(-1979.97 -960.989)" fill="#FF5A5F"/>
</g>
</g>
<defs>
<path id="path0_fill" fill-rule="evenodd" d="M 28.0994 19.8958C 28.6292 20.9907 29.053 21.9091 29.3002 22.6861C 31.1016 27.6345 27.3929 31.9824 22.9037 31.9788C 22.8684 31.9788 22.7272 31.9788 22.5505 31.9435L 22.056 31.9435C 19.7249 31.6609 17.3196 30.174 14.8826 27.525C 12.4454 30.1775 10.0402 31.6609 7.70898 31.9435L 7.21448 31.9435C 7.03796 31.9788 6.89661 31.9788 6.86133 31.9788C 2.37219 31.9788 -1.33643 27.6345 0.464844 22.6861C 0.500244 22.5801 0.641479 22.2269 0.924072 21.5558L 1.66577 19.9312L 1.66577 19.8605C 4.17346 14.5236 6.50818 9.72009 8.73328 5.40753L 8.83923 5.19556C 10.2521 2.2605 11.6331 0 14.8826 0C 18.1708 0 19.301 1.94617 20.8905 5.19556L 21.0317 5.40753C 23.257 9.72009 25.5916 14.5236 28.0994 19.8605L 28.0994 19.8958ZM 27.6755 25.8685C 27.4282 27.5285 26.298 28.906 24.7439 29.5771C 21.7417 30.8839 18.7712 28.8 16.2283 25.9744C 20.4348 20.7082 21.2119 16.6111 19.4071 13.9585C 18.3474 12.4398 16.8287 11.6981 14.8826 11.6981C 10.962 11.6981 8.80396 15.0181 9.65161 18.8715C 10.1461 20.9554 11.453 23.3254 13.5369 25.9744C 12.23 27.4225 10.9938 28.4468 9.89893 29.0826C 9.05115 29.5417 8.23889 29.8243 7.46179 29.895C 3.89441 30.4247 1.10071 26.9634 2.37219 23.3925C 2.54883 22.9333 2.90198 22.0857 3.50244 20.7788L 3.53772 20.7082C 5.48035 16.4662 7.85034 11.6627 10.5699 6.32587L 10.6406 6.14923L 11.4176 4.66583L 11.4814 4.54938C 12.0369 3.53497 12.2998 3.05469 13.219 2.47595C 13.6781 2.19342 14.2433 2.05212 14.879 2.05212C 16.1505 2.05212 17.1395 2.79382 17.5634 3.39429C 17.7308 3.64539 17.9202 3.96259 18.149 4.34589L 18.1501 4.34784L 18.3403 4.66583L 19.0822 6.11395L 19.1881 6.32587C 21.9077 11.6627 24.2777 16.4662 26.2203 20.7082L 26.2556 20.7435L 26.962 22.3682L 27.3859 23.3925C 27.7108 24.2084 27.7815 25.0208 27.6755 25.8685ZM 14.8826 24.3497C 13.0812 22.0892 12.0216 20.1077 11.6683 18.4124C 11.3152 17.0349 11.4564 15.9399 12.0569 15.1276C 12.6926 14.174 13.6464 13.7148 14.8826 13.7148C 16.1188 13.7148 17.0724 14.174 17.7081 15.1276C 18.3086 15.9399 18.4498 17.0349 18.0967 18.4124C 17.7081 20.1431 16.6486 22.121 14.8826 24.3497Z"/>
</defs>
</svg>
