<svg width="12" height="13" viewBox="0 0 12 13" version="1.1" xmlns="http://www.w3.org/2000/svg" xmlns:xlink="http://www.w3.org/1999/xlink">
<title>Shape Copy 4</title>
<desc>Created using Figma</desc>
<g id="Canvas" transform="translate(1916 241)">
<g id="Shape Copy 4">
<use xlink:href="#path0_fill" transform="translate(-1916 -240.036)" fill="#008489"/>
</g>
</g>
<defs>
<path id="path0_fill" d="M 11.9519 4.51713C 12.0653 4.87132 11.9771 5.14961 11.6998 5.36465L 8.84996 7.54162L 9.94653 11.0847C 10.0852 11.5781 9.71965 12.0335 9.2659 12.0335C 9.11465 12.0335 8.976 11.9829 8.84996 11.8817L 6.00015 9.70595L 3.15033 11.8829C 2.83523 12.098 2.40668 12.0347 2.1672 11.7311C 2.01595 11.5287 1.97814 11.3137 2.06637 11.086L 3.15033 7.56819L 0.287913 5.36465C 0.0232244 5.14961 -0.0650052 4.87132 0.0484328 4.51713C 0.149267 4.21354 0.413955 4.01115 0.703852 4.01115L 4.23429 4.01115L 5.33086 0.49333C 5.41909 0.202392 5.68378 0 5.98628 0C 6.30139 0 6.57868 0.215041 6.66691 0.518629L 7.76348 4.01115L 11.2939 4.01115C 11.5863 4.01115 11.851 4.21354 11.9519 4.51713Z"/>
</defs>
</svg>
