<svg width="24" height="24" viewBox="0 0 24 24" version="1.1" xmlns="http://www.w3.org/2000/svg" xmlns:xlink="http://www.w3.org/1999/xlink">
<title>facebook</title>
<desc>Created using Figma</desc>
<g id="Canvas" transform="translate(1114 -1280)">
<g id="ic/24/social/facebook">
<g id="Shape">
<use xlink:href="#path0_fill" transform="translate(-1111 1283)" fill="#484848"/>
</g>
<mask id="mask0_outline" mask-type="alpha">
<g id="Shape">
<use xlink:href="#path0_fill" transform="translate(-1111 1283)" fill="#FFFFFF"/>
</g>
</mask>
</g>
</g>
<defs>
<path id="path0_fill" fill-rule="evenodd" d="M 16.5 0L 1.5 0C 0.660034 0 0 0.660034 0 1.5L 0 16.5C 0 17.34 0.660034 18 1.5 18L 8.40002 18L 12 18L 16.5 18C 17.34 18 18 17.34 18 16.5L 18 1.5C 18 0.660034 17.34 0 16.5 0ZM 9.09265 11.3601L 6.90002 11.3601L 6.90002 8.96521L 9 8.96521L 9 6.95654C 9 5.32092 10.2986 3.94348 11.8334 3.80005L 14.3 3.80005L 14.3 6L 12.1074 6C 11.6415 6 11.2852 6.46875 11.2852 6.95654L 11.2852 8.96521L 14.026 8.96521L 14.026 11.3601L 11.2853 11.3601L 11.2853 17.2001L 9.09265 17.2001L 9.09265 11.3601ZM 11.9286 17.2001L 16.3215 17.2001C 16.8193 17.2001 17.2001 16.8193 17.2001 16.3215L 17.2001 1.67859C 17.2001 1.18079 16.8193 0.800049 16.3215 0.800049L 1.67859 0.800049C 1.18079 0.800049 0.800049 1.18079 0.800049 1.67859L 0.800049 16.3215C 0.800049 16.8193 1.18079 17.2001 1.67859 17.2001L 8.41431 17.2001L 8.41431 11.9286L 6.07141 11.9286L 6.07141 8.41431L 8.41431 8.41431L 8.41431 6.95007C 8.41431 4.98792 9.93726 3.3186 11.8993 3.14294L 15.15 3.14294L 15.15 6.65723L 12.2214 6.65723C 12.0458 6.65723 11.9286 6.77429 11.9286 6.95007L 11.9286 8.41431L 14.8572 8.41431L 14.8572 11.9286L 11.9286 11.9286L 11.9286 17.2001Z"/>
</defs>
</svg>
